<?xml version="1.0" encoding="UTF-8"?>
<svg id="Layer_1" xmlns="http://www.w3.org/2000/svg" version="1.1" xmlns:xlink="http://www.w3.org/1999/xlink" viewBox="0 0 841.89 595.28">
  <!-- Generator: Adobe Illustrator 30.2.1, SVG Export Plug-In . SVG Version: 2.1.1 Build 1)  -->
  <defs>
    <style>
      .st0 {
        fill: url(#linear-gradient2);
      }

      .st1 {
        fill: #231f20;
      }

      .st2 {
        fill: url(#linear-gradient1);
      }

      .st3 {
        fill: url(#linear-gradient4);
      }

      .st4 {
        fill: url(#linear-gradient3);
      }

      .st5 {
        fill: url(#linear-gradient);
      }
    </style>
    <linearGradient id="linear-gradient" x1="169.8" y1="154.55" x2="995.7" y2="381.03" gradientUnits="userSpaceOnUse">
      <stop offset=".13" stop-color="#e0cc21"/>
      <stop offset=".15" stop-color="#b4c736"/>
      <stop offset=".2" stop-color="#46bb6c"/>
      <stop offset=".22" stop-color="#11b687"/>
      <stop offset=".26" stop-color="#1a878a"/>
      <stop offset=".31" stop-color="#235b8d"/>
      <stop offset=".33" stop-color="#274a8f"/>
      <stop offset=".41" stop-color="#2b488e"/>
      <stop offset=".49" stop-color="#37458c"/>
      <stop offset=".57" stop-color="#4b4089"/>
      <stop offset=".66" stop-color="#673886"/>
      <stop offset=".74" stop-color="#8b2e80"/>
      <stop offset=".82" stop-color="#b7227a"/>
      <stop offset=".85" stop-color="#cc1d78"/>
    </linearGradient>
    <linearGradient id="linear-gradient1" x1="345.39" y1="238.92" x2="857.87" y2="203.66" gradientUnits="userSpaceOnUse">
      <stop offset=".27" stop-color="#2d368f" stop-opacity="0"/>
      <stop offset=".32" stop-color="#562f89" stop-opacity=".26"/>
      <stop offset=".38" stop-color="#792983" stop-opacity=".48"/>
      <stop offset=".44" stop-color="#97257f" stop-opacity=".67"/>
      <stop offset=".49" stop-color="#ae217c" stop-opacity=".81"/>
      <stop offset=".55" stop-color="#be1f79" stop-opacity=".92"/>
      <stop offset=".6" stop-color="#c81d78" stop-opacity=".98"/>
      <stop offset=".65" stop-color="#cc1d78"/>
    </linearGradient>
    <linearGradient id="linear-gradient2" x1="364.61" y1="317.08" x2="800.12" y2="204.24" gradientUnits="userSpaceOnUse">
      <stop offset=".29" stop-color="#2d368f" stop-opacity="0"/>
      <stop offset=".34" stop-color="#562f89" stop-opacity=".26"/>
      <stop offset=".39" stop-color="#792983" stop-opacity=".48"/>
      <stop offset=".45" stop-color="#97257f" stop-opacity=".67"/>
      <stop offset=".5" stop-color="#ae217c" stop-opacity=".81"/>
      <stop offset=".55" stop-color="#be1f79" stop-opacity=".92"/>
      <stop offset=".6" stop-color="#c81d78" stop-opacity=".98"/>
      <stop offset=".65" stop-color="#cc1d78"/>
    </linearGradient>
    <linearGradient id="linear-gradient3" x1="548.68" y1="326.35" x2="667.62" y2="243.53" gradientUnits="userSpaceOnUse">
      <stop offset=".1" stop-color="#2d368f" stop-opacity="0"/>
      <stop offset=".11" stop-color="#35348d" stop-opacity=".05"/>
      <stop offset=".19" stop-color="#582f88" stop-opacity=".27"/>
      <stop offset=".27" stop-color="#772a84" stop-opacity=".47"/>
      <stop offset=".36" stop-color="#912680" stop-opacity=".63"/>
      <stop offset=".46" stop-color="#a6227d" stop-opacity=".77"/>
      <stop offset=".56" stop-color="#b7207a" stop-opacity=".87"/>
      <stop offset=".67" stop-color="#c31e79" stop-opacity=".94"/>
      <stop offset=".8" stop-color="#c91d78" stop-opacity=".99"/>
      <stop offset="1" stop-color="#cc1d78"/>
    </linearGradient>
    <linearGradient id="linear-gradient4" x1="374.45" y1="441.42" x2="754.44" y2="441.42" gradientUnits="userSpaceOnUse">
      <stop offset="0" stop-color="#39c3e6"/>
      <stop offset=".19" stop-color="#3599cc"/>
      <stop offset=".6" stop-color="#2d368f"/>
      <stop offset=".64" stop-color="#33348e"/>
      <stop offset=".7" stop-color="#47318b"/>
      <stop offset=".77" stop-color="#662c86"/>
      <stop offset=".85" stop-color="#922680"/>
      <stop offset=".93" stop-color="#ca1d78"/>
      <stop offset=".94" stop-color="#cc1d78"/>
    </linearGradient>
  </defs>
  <g>
    <path class="st5" d="M559.08,103.95v32.95h-28.93v-20.62c0-2.61-1.05-4.96-2.77-6.67-2.15-2.15-5.35-3.27-8.78-2.52-4.39.95-7.3,5.18-7.3,9.67v20.15s-130.44,0-130.44,0v-20.62c0-2.61-1.05-4.96-2.77-6.67-2.18-2.18-5.45-3.3-8.9-2.49-4.34,1.01-7.18,5.23-7.18,9.68v20.1s-28.94,0-28.94,0v-32.95c0-9.22,7.47-16.69,16.69-16.69h192.63c9.22,0,16.69,7.47,16.69,16.69ZM267.33,168.69h-28.96c-4.76,0-8.62,3.86-8.62,8.62h0c0,4.76,3.86,8.62,8.62,8.62h117.41c4.86,0,8.79,3.94,8.79,8.79h0c0,4.86-3.94,8.79-8.79,8.79h-47.07c-4.57,0-8.28,3.7-8.28,8.28h0c0,4.57,3.7,8.28,8.28,8.28h80.34c4.76,0,8.62,3.86,8.62,8.62v1.72c0,4.76-3.86,8.62-8.62,8.62h-67.06c-4.57,0-8.28,3.7-8.28,8.28v1.72c0,4.57,3.7,8.28,8.28,8.28h24.65c4.76,0,8.62,3.86,8.62,8.62h0c0,4.76-3.86,8.62-8.62,8.62h-128.44c-4.28,0-7.76,3.47-7.76,7.76h0c0,4.28,3.47,7.76,7.76,7.76h70.51c6.09,0,11.04,4.94,11.04,11.04h0c0,6.09-4.94,11.04-11.04,11.04h-54.31c-4.28,0-7.76,3.47-7.76,7.76v1.04c0,4.28,3.47,7.76,7.76,7.76h184.6c18.03,0,34.78-9.34,44.26-24.69l65.42-105.92c8.59-13.91,23.77-22.37,40.11-22.37h57.15c0-15.42-12.5-27.93-27.93-27.93h-307.34c-2.64,0-5.15,1.11-6.93,3.05l-16.4,17.87ZM572.87,185.81c-12.09,0-23.31,6.29-29.63,16.6l-66.83,109.2c-11.29,18.45-31.37,29.7-53,29.7h-145.74c0,9.33,7.56,16.9,16.9,16.9h211.57c10.74,0,19.45-8.71,19.45-19.45v-51.66c0-18.23,14.78-33.02,33.02-33.02h43.66c4.55,0,8.68-2.64,10.6-6.77l8.08-17.41c3.29-7.09,4.99-14.81,4.99-22.62v-21.47h-53.06ZM163.55,257.3h127c5.05,0,9.14-4.09,9.14-9.14h0c0-5.05-4.09-9.14-9.14-9.14h-127c-5.05,0-9.14,4.09-9.14,9.14h0c0,5.05,4.09,9.14,9.14,9.14ZM163.55,221.04h26.78c5.05,0,9.14-4.09,9.14-9.14h0c0-5.05-4.09-9.14-9.14-9.14h-26.78c-5.05,0-9.14,4.09-9.14,9.14h0c0,5.05,4.09,9.14,9.14,9.14ZM218.02,221.04h62.64c5.05,0,9.14-4.09,9.14-9.14h0c0-5.05-4.09-9.14-9.14-9.14h-62.64c-5.05,0-9.14,4.09-9.14,9.14h0c0,5.05,4.09,9.14,9.14,9.14ZM574.47,358.29c17.17-.03,31.06-13.96,31.06-31.13v-52.94c0-3.95-3.2-7.15-7.15-7.15h-40c-10.43,0-18.88,8.45-18.88,18.88v50.64c0,5.03-1.49,9.95-4.29,14.13l-5.02,7.49c-.13.13,23.46.11,44.28.07Z"/>
    <g>
      <path class="st2" d="M267.33,168.69h-28.96c-4.76,0-8.62,3.86-8.62,8.62h0c0,4.76,3.86,8.62,8.62,8.62h126.2v17.59h-55.86c-4.57,0-8.28,3.7-8.28,8.28h0c0,4.57,3.7,8.28,8.28,8.28h80.34c4.76,0,8.62,3.86,8.62,8.62v1.72c0,4.76-3.86,8.62-8.62,8.62h-67.06c-4.57,0-8.28,3.7-8.28,8.28v1.72c0,4.57,3.7,8.28,8.28,8.28h24.65c4.76,0,8.62,3.86,8.62,8.62h0c0,4.76-3.86,8.62-8.62,8.62h-128.44c-4.28,0-7.76,3.47-7.76,7.76h0c0,4.28,3.47,7.76,7.76,7.76h70.51c6.09,0,11.04,4.94,11.04,11.04h0c0,6.09-4.94,11.04-11.04,11.04h-54.31c-4.28,0-7.76,3.47-7.76,7.76v1.04c0,4.28,3.47,7.76,7.76,7.76h184.6c18.03,0,34.78-9.34,44.26-24.69l65.42-105.92c8.59-13.91,23.77-22.37,40.11-22.37h57.15c0-15.42-12.5-27.93-27.93-27.93h-307.34c-2.64,0-5.15,1.11-6.93,3.05l-16.4,17.87Z"/>
      <path class="st0" d="M572.87,185.81c-12.09,0-23.31,6.29-29.63,16.6l-66.83,109.2c-11.29,18.45-31.37,29.7-53,29.7h-145.74c0,9.33,7.56,16.9,16.9,16.9h211.57c10.74,0,19.45-8.71,19.45-19.45v-51.66c0-18.23,14.78-33.02,33.02-33.02h43.66c4.55,0,8.68-2.64,10.6-6.77l8.08-17.41c3.29-7.09,4.99-14.81,4.99-22.62v-21.47h-53.06Z"/>
      <path class="st4" d="M574.46,358.29c17.17-.03,31.07-13.96,31.07-31.13v-52.94c0-3.95-3.2-7.15-7.15-7.15h-40c-10.43,0-18.88,8.45-18.88,18.88v50.64c0,5.03-1.49,9.95-4.29,14.13l-5.02,7.49c-.13.13,23.46.11,44.27.07Z"/>
    </g>
  </g>
  <g>
    <polygon class="st1" points="207.1 417.75 207.1 435 260.94 435 260.94 447.36 207.1 447.36 207.1 464.37 265.49 464.37 265.49 477.96 191.38 477.96 191.38 404.15 265.49 404.15 265.49 417.75 207.1 417.75"/>
    <polygon class="st1" points="353.16 464.37 366.26 477.96 344.42 477.96 331.33 464.37 319.84 452.46 308.27 464.37 295.06 477.96 273.14 477.96 286.36 464.37 302.88 447.36 308.93 441.13 303 435 286.38 417.75 273.27 404.15 295.11 404.15 308.22 417.75 319.9 429.86 331.66 417.75 344.88 404.15 366.8 404.15 353.59 417.75 336.82 435 330.81 441.18 336.77 447.36 353.16 464.37"/>
    <polygon class="st1" points="180.09 404.15 180.09 477.96 166.97 477.96 164.29 475.86 103.24 427.97 103.24 477.96 87.45 477.96 87.45 404.15 101.26 404.15 103.24 405.71 164.29 453.61 164.29 404.15 180.09 404.15"/>
    <path class="st3" d="M696.04,418.48v17.25h53.85v12.37h-53.85v17.01h58.4v13.59h-74.11v-73.81h74.11v13.6h-58.4ZM433.47,435l20.16-17.25.39-.34v-13.26h-79.58v13.6h55.01l-20.17,17.25-14.45,12.37-19.88,17.01-.51.44v13.15h79.58v-13.59h-54.89l19.88-17.01,14.45-12.37ZM568.27,441.36c0,10.27-4.17,19.58-10.9,26.29-6.72,6.74-16.02,10.9-26.29,10.9h-32.2c-20.54,0-37.2-16.66-37.2-37.2,0-10.28,4.17-19.58,10.9-26.31,6.73-6.73,16.03-10.89,26.29-10.89h32.2c20.54,0,37.2,16.66,37.2,37.21ZM525.83,465.05c6.54,0,12.46-2.65,16.76-6.94,4.29-4.28,6.94-10.21,6.94-16.75,0-13.08-10.61-23.71-23.7-23.71h-21.71c-6.55,0-12.47,2.66-16.76,6.95-4.29,4.29-6.94,10.22-6.94,16.76,0,13.08,10.61,23.69,23.7,23.69h21.71ZM652.76,404.15v49.46l-61.05-47.91-1.98-1.55h-13.81v73.81h15.79v-49.99l61.05,47.89,2.68,2.11h13.13v-73.81h-15.8Z"/>
  </g>
</svg>