<svg width="58" height="58" viewBox="0 0 58 58" fill="none" xmlns="http://www.w3.org/2000/svg">
<g clip-path="url(#clip0_202_526)">
<path d="M58 0H0V58H58V0Z" fill="white" fill-opacity="0.01"/>
<path d="M27.9165 25.1541C28.3597 24.2559 29.6403 24.2559 30.0835 25.1541L33.6905 32.4626C33.8666 32.8193 34.2069 33.0665 34.6004 33.1236L42.6658 34.2956C43.6569 34.4396 44.0527 35.6576 43.3355 36.3567L37.4993 42.0456C37.2145 42.3232 37.0845 42.7231 37.1518 43.1151L38.5295 51.148C38.6988 52.1351 37.6627 52.8877 36.7763 52.4218L29.5623 48.6291C29.2103 48.4441 28.7898 48.4441 28.4378 48.6291L21.2238 52.4218C20.3374 52.8877 19.3012 52.1351 19.4705 51.148L20.8483 43.1151C20.9156 42.7231 20.7855 42.3232 20.5007 42.0456L14.6646 36.3567C13.9473 35.6576 14.3432 34.4396 15.3343 34.2956L23.3996 33.1236C23.7932 33.0665 24.1335 32.8193 24.3095 32.4626L27.9165 25.1541Z" fill="black"/>
<path d="M43.5 4.83203H14.5V16.9154L29 22.957L43.5 16.9154V4.83203Z" fill="black"/>
</g>
<defs>
<clipPath id="clip0_202_526">
<rect width="58" height="58" fill="white"/>
</clipPath>
</defs>
</svg>
