<svg width="41" height="41" viewBox="0 0 41 41" fill="none" xmlns="http://www.w3.org/2000/svg">
<path d="M28.0522 3.23832L40.8916 4.96464L30.3179 15.5383L28.0522 3.23832ZM12.9469 37.7646L0.107422 36.0383L10.6811 25.4646L12.9469 37.7646ZM3.23637 12.9488L4.96269 0.109375L15.5364 10.6831L3.23637 12.9488Z" fill="#060606"/>
<path d="M4.63947 17.4789L0.107895 18.3421C-1.04504e-07 19.0974 0 19.7447 0 20.5C0 25.4632 1.72632 30.2105 4.96316 33.879L8.2 31.0737C5.71842 28.1605 4.31579 24.3842 4.31579 20.5C4.31579 19.5289 4.42368 18.45 4.63947 17.4789ZM20.5 0C14.6737 0 9.49474 2.48158 5.71842 6.36579L8.73947 9.38684C11.7605 6.25789 15.8605 4.31579 20.5 4.31579C21.4711 4.31579 22.55 4.42368 23.5211 4.63947L24.2763 0.431579C23.0895 0.107895 21.7947 0 20.5 0ZM36.3605 23.5211L40.8921 22.6579C41 21.9026 41 21.2553 41 20.5C41 15.7526 39.3816 11.1132 36.3605 7.44474L33.0158 10.1421C35.3895 13.0553 36.6842 16.7237 36.6842 20.3921C36.6842 21.4711 36.5763 22.55 36.3605 23.5211ZM32.2605 31.6132C29.2395 34.7421 25.1395 36.6842 20.5 36.6842C19.5289 36.6842 18.45 36.5763 17.4789 36.3605L16.7237 40.5684C18.0184 40.7842 19.3132 40.8921 20.5 40.8921C26.3263 40.8921 31.5053 38.4105 35.2816 34.5263L32.2605 31.6132Z" fill="#060606"/>
<path d="M37.7629 28.0527L36.0366 40.8922L25.4629 30.3185L37.7629 28.0527Z" fill="#060606"/>
</svg>
