<svg width="74" height="74" viewBox="0 0 74 74" fill="none" xmlns="http://www.w3.org/2000/svg">
<path d="M1.5415 41.0841L3.08317 34.9174H20.0415L18.4998 41.0841H1.5415ZM15.0311 58.9674C13.2325 57.1688 12.3332 54.9848 12.3332 52.4154H4.62484L6.1665 45.7091H22.1228L24.8978 34.4549H31.3728L35.2269 19.0383H13.8748L14.3373 17.1883C14.6457 15.7494 15.3528 14.5808 16.4587 13.6825C17.5646 12.7843 18.8616 12.3341 20.3498 12.332H55.4998L52.6478 24.6654H61.6665L70.9165 36.9987L67.8332 52.4154H61.6665C61.6665 54.9848 60.7672 57.1688 58.9686 58.9674C57.17 60.7661 54.9859 61.6654 52.4165 61.6654C49.8471 61.6654 47.663 60.7661 45.8644 58.9674C44.0658 57.1688 43.1665 54.9848 43.1665 52.4154H30.8332C30.8332 54.9848 29.9339 57.1688 28.1353 58.9674C26.3366 60.7661 24.1526 61.6654 21.5832 61.6654C19.0137 61.6654 16.8297 60.7661 15.0311 58.9674ZM7.70817 29.8299L9.24984 23.6633H29.2915L27.7498 29.8299H7.70817ZM21.5832 55.4987C22.4568 55.4987 23.1896 55.2027 23.7816 54.6107C24.3736 54.0187 24.6686 53.2869 24.6665 52.4154C24.6644 51.5438 24.3684 50.812 23.7785 50.22C23.1886 49.628 22.4568 49.332 21.5832 49.332C20.7096 49.332 19.9778 49.628 19.3878 50.22C18.7979 50.812 18.5019 51.5438 18.4998 52.4154C18.4978 53.2869 18.7938 54.0197 19.3878 54.6138C19.9819 55.2078 20.7137 55.5028 21.5832 55.4987ZM52.4165 55.4987C53.2901 55.4987 54.0229 55.2027 54.6149 54.6107C55.2069 54.0187 55.5019 53.2869 55.4998 52.4154C55.4978 51.5438 55.2018 50.812 54.6118 50.22C54.0219 49.628 53.2901 49.332 52.4165 49.332C51.5429 49.332 50.8111 49.628 50.2212 50.22C49.6312 50.812 49.3352 51.5438 49.3332 52.4154C49.3311 53.2869 49.6271 54.0197 50.2212 54.6138C50.8152 55.2078 51.547 55.5028 52.4165 55.4987ZM49.1019 40.082H63.979L64.2873 38.4633L58.5832 30.832H51.2603L49.1019 40.082Z" fill="url(#paint0_linear_202_747)"/>
<defs>
<linearGradient id="paint0_linear_202_747" x1="36.229" y1="12.332" x2="36.229" y2="61.6654" gradientUnits="userSpaceOnUse">
<stop stop-color="#06EAEA"/>
<stop offset="1" stop-color="#00BFE3"/>
</linearGradient>
</defs>
</svg>
