<svg width="46" height="46" viewBox="0 0 46 46" fill="none" xmlns="http://www.w3.org/2000/svg">
<g clip-path="url(#clip0_202_541)">
<path d="M23.0051 28.0945C30.048 28.0945 35.7808 22.3617 35.7808 15.3188C35.7808 8.27577 30.0481 2.55078 23.0051 2.55078C15.9621 2.55078 10.2295 8.2835 10.2295 15.3264C10.2295 22.3692 15.9622 28.0945 23.0051 28.0945Z" fill="white"/>
<path d="M30.5707 28.6562C30.5631 28.6562 30.5631 28.6562 30.5556 28.6562C28.5336 29.8073 26.2466 30.5041 23.793 30.6328L31.2599 42.1286L32.6533 39.2888C32.8578 38.8647 33.2894 38.5921 33.759 38.5769L36.9244 38.4558L30.5707 28.6562Z" fill="black"/>
<path d="M22.2175 30.625C19.7714 30.4963 17.4768 29.7996 15.4549 28.6484C15.4473 28.6484 15.4473 28.6484 15.4398 28.6484L9.08594 38.4403L12.2514 38.5615C12.7209 38.5766 13.145 38.8493 13.357 39.2734L14.7505 42.1132L22.2175 30.625Z" fill="black"/>
<path d="M40.2939 38.948L32.683 27.2098C36.1287 24.3927 38.34 20.1139 38.34 15.3353C38.3325 6.87629 31.4562 0 23.0047 0C14.5532 0 7.677 6.87629 7.677 15.3277C7.677 20.1139 9.88835 24.4001 13.334 27.2022L5.71564 38.948C5.46577 39.3342 5.44305 39.8265 5.65508 40.2354C5.86711 40.6444 6.27607 40.9019 6.73797 40.9246L11.3878 41.0988L13.4401 45.2791C13.8945 46.0592 14.5609 45.991 14.5911 45.991C15.0228 45.991 15.4241 45.7713 15.6589 45.4078L23.0047 34.1014L30.3429 45.4154C30.5928 45.8017 31.0321 46.0213 31.494 45.9986C31.9559 45.9759 32.3648 45.7033 32.5617 45.2867L34.614 41.1064L39.2638 40.9322C39.7257 40.9171 40.1423 40.652 40.3467 40.243C40.5514 39.834 40.5363 39.3342 40.2939 38.948ZM32.6528 39.2737L31.2593 42.1211L23.7924 30.6253C26.2385 30.4966 28.5331 29.7999 30.5551 28.6487C30.5627 28.6487 30.5627 28.6487 30.5702 28.6487L36.9239 38.4406L33.7584 38.5618C33.2889 38.5769 32.8648 38.8571 32.6528 39.2737ZM12.251 38.5618L9.08555 38.4406L15.4393 28.6487C15.4469 28.6487 15.4469 28.6487 15.4544 28.6487C17.4764 29.7923 19.7634 30.4966 22.217 30.6253L14.7501 42.1211L13.3567 39.2737C13.1447 38.8571 12.7207 38.5769 12.251 38.5618ZM23.0047 2.55212C30.0476 2.55212 35.7804 8.28484 35.7804 15.3278C35.7804 22.3708 30.0477 28.0958 23.0047 28.0958C15.9617 28.0958 10.2291 22.3631 10.2291 15.3202C10.2291 8.27734 15.9618 2.55212 23.0047 2.55212Z" fill="black"/>
<path d="M29.972 15.3285C29.972 11.489 26.8519 8.36133 23.0048 8.36133C19.1653 8.36133 16.0376 11.4814 16.0376 15.3285C16.0376 19.1757 19.1576 22.2957 23.0048 22.2957C26.8443 22.2957 29.972 19.1757 29.972 15.3285Z" fill="black"/>
<path d="M23.0052 5.80078C17.7571 5.80078 13.4858 10.072 13.4858 15.3201C13.4858 20.5682 17.7571 24.8469 23.0052 24.8469C28.2532 24.8469 32.5245 20.5757 32.5245 15.3276C32.5245 10.0795 28.2532 5.80078 23.0052 5.80078ZM16.0381 15.3276C16.0381 11.488 19.1581 8.3604 23.0053 8.3604C26.8448 8.3604 29.9725 11.4804 29.9725 15.3276C29.9725 19.1747 26.8524 22.2948 23.0053 22.2948C19.1657 22.2948 16.0381 19.1747 16.0381 15.3276Z" fill="black"/>
</g>
<defs>
<clipPath id="clip0_202_541">
<rect width="46" height="46" fill="white"/>
</clipPath>
</defs>
</svg>
