<svg width="72" height="50" viewBox="0 0 72 50" fill="none" xmlns="http://www.w3.org/2000/svg">
<path d="M61.7523 4.3596V33.324H56.0262V16.6619H45.5641V0H20.4139V16.6619H9.95173V33.324H0V43.459H5.7419C5.68619 43.7621 5.65548 44.074 5.65548 44.393C5.65548 47.238 7.97011 49.5526 10.8151 49.5526C13.6602 49.5526 15.9748 47.2379 15.9748 44.393C15.9748 44.0738 15.9442 43.7621 15.8884 43.459H50.0887C50.0332 43.7621 50.0023 44.074 50.0023 44.393C50.0023 47.238 52.3169 49.5526 55.162 49.5526C58.0072 49.5526 60.3218 47.2379 60.3218 44.393C60.3218 44.0738 60.2912 43.7621 60.2354 43.459H65.9773V35.4369V33.324V8.58527H71.1287V4.3596C71.1291 4.3596 61.7523 4.3596 61.7523 4.3596ZM45.564 25.1195V20.8876H51.8004V33.324H35.1018V20.8876H41.3383V25.1195H45.564ZM24.6395 4.22581H30.876V8.45759H35.1017V4.22581H41.3381V16.6621H35.1017H30.876H24.6395V4.22581ZM14.1775 20.8877H20.414V25.1197H24.6397V20.8877H30.8761V33.3241H14.1775V20.8877ZM10.8154 45.3269C10.3003 45.3269 9.88143 44.908 9.88143 44.393C9.88143 43.878 10.3004 43.459 10.8154 43.459C11.3304 43.459 11.7494 43.8778 11.7494 44.393C11.7494 44.908 11.3304 45.3269 10.8154 45.3269ZM55.1625 45.3269C54.6475 45.3269 54.2285 44.908 54.2285 44.393C54.2285 43.878 54.6475 43.459 55.1625 43.459C55.6778 43.459 56.0967 43.8778 56.0967 44.393C56.0967 44.908 55.6777 45.3269 55.1625 45.3269ZM61.7523 39.2333H4.22567V37.5498H9.95173H30.8761H35.1018H56.0262H61.7523V39.2333Z" fill="url(#paint0_linear_202_749)"/>
<defs>
<linearGradient id="paint0_linear_202_749" x1="35.5644" y1="0" x2="35.5644" y2="49.5526" gradientUnits="userSpaceOnUse">
<stop stop-color="#06EAEA"/>
<stop offset="1" stop-color="#00BFE3"/>
</linearGradient>
</defs>
</svg>
