<svg width="47" height="47" viewBox="0 0 47 47" fill="none" xmlns="http://www.w3.org/2000/svg">
<path d="M46.5714 9.26297L36.8292 18.8677C36.8292 18.8677 33.9177 18.8677 31.0063 15.964C28.0948 13.0602 28.0948 10.1564 28.0948 10.1564L37.837 0.44C32.35 -0.900198 25.7433 0.886732 21.712 4.90732C15.6652 10.9382 21.0402 18.6444 19.4724 20.2079C10.962 29.0309 2.22768 35.7319 2.00372 36.0669C-0.571793 38.6356 -0.683773 42.7679 1.77977 45.2249C4.2433 47.682 8.38653 47.5703 10.962 45.0016C11.298 44.6665 18.4646 35.6202 26.8631 27.244C28.4308 25.6804 35.8214 31.3762 42.0922 25.2337C46.0115 21.2131 47.9151 14.7354 46.5714 9.26297ZM7.04278 42.8796C5.47507 42.8796 4.2433 41.6511 4.2433 40.0875C4.2433 38.4123 5.47507 37.1838 7.04278 37.1838C8.61049 37.1838 9.84225 38.4123 9.84225 39.9758C9.84225 41.5394 8.61049 42.8796 7.04278 42.8796Z" fill="black"/>
</svg>
