<svg width="62" height="62" viewBox="0 0 62 62" fill="none" xmlns="http://www.w3.org/2000/svg">
<path d="M22.7332 28.2888L28.2873 22.6701L24.6707 18.9888L21.829 21.8305L18.2123 18.2138L20.9894 15.3721L18.0832 12.4659L12.4644 18.0846L22.7332 28.2888ZM43.9165 49.5367L49.5353 43.918L46.629 41.0117L43.7873 43.7888L40.1707 40.1721L42.9478 37.3305L39.2665 33.7138L33.7123 39.268L43.9165 49.5367ZM18.729 54.2513H7.74984V43.2721L19.0519 31.9701L5.1665 18.0846L18.0832 5.16797L32.0332 19.118L41.7853 9.3013C42.3019 8.78464 42.8832 8.39714 43.529 8.1388C44.1748 7.88047 44.8422 7.7513 45.5311 7.7513C46.22 7.7513 46.8873 7.88047 47.5332 8.1388C48.179 8.39714 48.7603 8.78464 49.2769 9.3013L52.6998 12.7888C53.2165 13.3055 53.604 13.8867 53.8623 14.5326C54.1207 15.1784 54.2498 15.8457 54.2498 16.5346C54.2498 17.2235 54.1207 17.8806 53.8623 18.5057C53.604 19.1309 53.2165 19.7009 52.6998 20.2159L42.9478 30.0326L56.8332 43.918L43.9165 56.8346L30.0311 42.9492L18.729 54.2513ZM12.9165 49.0846H16.5332L41.8498 23.8326L38.1686 20.1513L12.9165 45.468V49.0846ZM40.0415 22.0242L38.1686 20.1513L41.8498 23.8326L40.0415 22.0242Z" fill="url(#paint0_linear_202_741)"/>
<defs>
<linearGradient id="paint0_linear_202_741" x1="30.9998" y1="5.16797" x2="30.9998" y2="56.8346" gradientUnits="userSpaceOnUse">
<stop stop-color="#06EAEA"/>
<stop offset="1" stop-color="#00BFE3"/>
</linearGradient>
</defs>
</svg>
