<svg width="42" height="42" viewBox="0 0 42 42" fill="none" xmlns="http://www.w3.org/2000/svg">
<path d="M25.2 14.7H16.8C16.243 14.7 15.7089 14.9212 15.3151 15.3151C14.9212 15.7089 14.7 16.243 14.7 16.8V25.2C14.7 25.757 14.9212 26.2911 15.3151 26.6849C15.7089 27.0787 16.243 27.3 16.8 27.3H25.2C25.757 27.3 26.2911 27.0787 26.6849 26.6849C27.0787 26.2911 27.3 25.757 27.3 25.2V16.8C27.3 16.243 27.0787 15.7089 26.6849 15.3151C26.2911 14.9212 25.757 14.7 25.2 14.7ZM23.1 23.1H18.9V18.9H23.1V23.1ZM39.9 23.1C40.457 23.1 40.9911 22.8787 41.3849 22.4849C41.7788 22.0911 42 21.557 42 21C42 20.443 41.7788 19.9089 41.3849 19.5151C40.9911 19.1213 40.457 18.9 39.9 18.9H35.7V14.7H39.9C40.457 14.7 40.9911 14.4787 41.3849 14.0849C41.7788 13.6911 42 13.157 42 12.6C42 12.043 41.7788 11.5089 41.3849 11.1151C40.9911 10.7212 40.457 10.5 39.9 10.5H35.322C35.0084 9.61926 34.5028 8.81936 33.8417 8.15829C33.1806 7.49722 32.3807 6.99157 31.5 6.678V2.1C31.5 1.54305 31.2787 1.0089 30.8849 0.615076C30.4911 0.221249 29.957 0 29.4 0C28.843 0 28.3089 0.221249 27.9151 0.615076C27.5212 1.0089 27.3 1.54305 27.3 2.1V6.3H23.1V2.1C23.1 1.54305 22.8787 1.0089 22.4849 0.615076C22.0911 0.221249 21.557 0 21 0C20.443 0 19.9089 0.221249 19.5151 0.615076C19.1213 1.0089 18.9 1.54305 18.9 2.1V6.3H14.7V2.1C14.7 1.54305 14.4787 1.0089 14.0849 0.615076C13.6911 0.221249 13.157 0 12.6 0C12.043 0 11.5089 0.221249 11.1151 0.615076C10.7212 1.0089 10.5 1.54305 10.5 2.1V6.678C9.61926 6.99157 8.81936 7.49722 8.15829 8.15829C7.49722 8.81936 6.99157 9.61926 6.678 10.5H2.1C1.54305 10.5 1.0089 10.7212 0.615076 11.1151C0.221249 11.5089 0 12.043 0 12.6C0 13.157 0.221249 13.6911 0.615076 14.0849C1.0089 14.4787 1.54305 14.7 2.1 14.7H6.3V18.9H2.1C1.54305 18.9 1.0089 19.1213 0.615076 19.5151C0.221249 19.9089 0 20.443 0 21C0 21.557 0.221249 22.0911 0.615076 22.4849C1.0089 22.8787 1.54305 23.1 2.1 23.1H6.3V27.3H2.1C1.54305 27.3 1.0089 27.5212 0.615076 27.9151C0.221249 28.3089 0 28.843 0 29.4C0 29.957 0.221249 30.4911 0.615076 30.8849C1.0089 31.2787 1.54305 31.5 2.1 31.5H6.678C6.99157 32.3807 7.49722 33.1806 8.15829 33.8417C8.81936 34.5028 9.61926 35.0084 10.5 35.322V39.9C10.5 40.457 10.7212 40.9911 11.1151 41.3849C11.5089 41.7788 12.043 42 12.6 42C13.157 42 13.6911 41.7788 14.0849 41.3849C14.4787 40.9911 14.7 40.457 14.7 39.9V35.7H18.9V39.9C18.9 40.457 19.1213 40.9911 19.5151 41.3849C19.9089 41.7788 20.443 42 21 42C21.557 42 22.0911 41.7788 22.4849 41.3849C22.8787 40.9911 23.1 40.457 23.1 39.9V35.7H27.3V39.9C27.3 40.457 27.5212 40.9911 27.9151 41.3849C28.3089 41.7788 28.843 42 29.4 42C29.957 42 30.4911 41.7788 30.8849 41.3849C31.2787 40.9911 31.5 40.457 31.5 39.9V35.322C32.3807 35.0084 33.1806 34.5028 33.8417 33.8417C34.5028 33.1806 35.0084 32.3807 35.322 31.5H39.9C40.457 31.5 40.9911 31.2787 41.3849 30.8849C41.7788 30.4911 42 29.957 42 29.4C42 28.843 41.7788 28.3089 41.3849 27.9151C40.9911 27.5212 40.457 27.3 39.9 27.3H35.7V23.1H39.9ZM31.5 29.4C31.5 29.957 31.2787 30.4911 30.8849 30.8849C30.4911 31.2787 29.957 31.5 29.4 31.5H12.6C12.043 31.5 11.5089 31.2787 11.1151 30.8849C10.7212 30.4911 10.5 29.957 10.5 29.4V12.6C10.5 12.043 10.7212 11.5089 11.1151 11.1151C11.5089 10.7212 12.043 10.5 12.6 10.5H29.4C29.957 10.5 30.4911 10.7212 30.8849 11.1151C31.2787 11.5089 31.5 12.043 31.5 12.6V29.4Z" fill="black"/>
</svg>
