<svg width="21" height="23" viewBox="0 0 21 23" fill="none" xmlns="http://www.w3.org/2000/svg">
<path d="M4.50455 12.7364C4.59138 10.2038 5.01605 8.21335 5.7771 6.7649C6.53954 5.31646 7.69762 4.25581 9.25 3.58594L7.39702 0.326171C4.76929 1.57482 2.83498 3.43169 1.5928 5.89663C0.698064 7.69326 0.25 10.6312 0.25 14.7107V22.3262H8.5441V12.7364H4.50455Z" stroke="#048BFF" stroke-width="0.5" stroke-miterlimit="10"/>
<path d="M15.5675 12.7364C15.6544 10.2038 16.079 8.21335 16.8401 6.7649C17.6025 5.31646 18.7606 4.25581 20.313 3.58594L18.46 0.326171C15.8323 1.57482 13.898 3.43169 12.6558 5.89663C11.7611 7.69326 11.313 10.6312 11.313 14.7107V22.3262H19.6071V12.7364H15.5675Z" stroke="#048BFF" stroke-width="0.5" stroke-miterlimit="10"/>
</svg>
