<svg width="70" height="70" viewBox="0 0 70 70" fill="none" xmlns="http://www.w3.org/2000/svg">
<path d="M37.3334 50.1654C37.4792 49.582 37.4792 48.8529 37.4792 48.1237C37.4792 47.3945 37.4792 46.8112 37.3334 46.082L41.4167 43.1654C41.8542 42.8737 42 42.2904 41.7084 41.8529L37.7709 35.1445C37.4792 34.707 37.0417 34.5612 36.6042 34.707L32.0834 36.8945C31.0625 36.0195 29.8959 35.4362 28.5834 34.8529L28.1459 29.8945C28.1459 29.457 27.7084 29.0195 27.2709 29.0195H19.5417C19.1042 29.0195 18.6667 29.457 18.6667 29.8945L18.0834 34.9987C16.7709 35.4362 15.75 36.1654 14.5834 37.0404L10.0625 34.9987C9.62505 34.8529 9.04172 34.9987 8.89588 35.4362L4.95838 42.1445C4.66672 42.582 4.81255 43.1654 5.25005 43.457L9.33338 46.3737C9.18755 46.957 9.18755 47.6862 9.18755 48.4154C9.18755 49.1445 9.18755 49.7279 9.33338 50.457L5.25005 53.3737C4.81255 53.6654 4.66672 54.2487 4.95838 54.6862L8.89588 61.3945C9.18755 61.832 9.62505 61.9779 10.0625 61.832L14.5834 59.7904C15.6042 60.6654 16.7709 61.2487 18.0834 61.832L18.5209 66.7904C18.5209 67.2279 18.9584 67.6654 19.3959 67.6654H27.1251C27.5626 67.6654 28.0001 67.2279 28.0001 66.7904L28.4375 61.832C29.75 61.3945 30.7709 60.6654 31.9375 59.7904L36.4584 61.832C36.8959 61.9779 37.4792 61.832 37.625 61.3945L41.5625 54.6862C41.8542 54.2487 41.7084 53.6654 41.2709 53.3737L37.3334 50.1654ZM23.3334 55.4154C19.2501 55.4154 16.0417 52.207 16.0417 48.1237C16.0417 44.0404 19.2501 40.832 23.3334 40.832C27.4167 40.832 30.625 44.0404 30.625 48.1237C30.625 52.207 27.4167 55.4154 23.3334 55.4154Z" fill="url(#paint0_linear_202_744)"/>
<path d="M61.1041 22.3138C61.2499 21.5846 61.2499 21.0013 61.2499 20.418C61.2499 19.8346 61.2499 19.2513 61.1041 18.5221L64.7499 15.8971C65.1874 15.6055 65.1874 15.168 65.0416 14.7305L61.3957 8.45964C61.1041 8.02214 60.6666 7.8763 60.2291 8.16797L55.9999 10.0638C54.9791 9.33464 53.9582 8.7513 52.7916 8.16797L52.3541 3.64714C52.4999 3.20964 52.2082 2.91797 51.7707 2.91797H44.6249C44.1874 2.91797 43.7499 3.20964 43.7499 3.64714L43.3124 8.16797C42.1457 8.60547 41.1249 9.1888 40.1041 10.0638L35.8749 8.16797C35.4374 8.02214 34.9999 8.16797 34.7082 8.45964L31.0624 14.7305C30.7707 15.168 30.9166 15.6055 31.3541 15.8971L34.9999 18.5221V20.418C34.9999 21.0013 34.9999 21.5846 35.1457 22.3138L31.4999 24.9388C31.0624 25.2305 31.0624 25.668 31.2082 26.1055L34.8541 32.3763C35.1457 32.8138 35.5832 32.9596 36.0207 32.668L40.2499 30.7721C41.2707 31.5013 42.2916 32.0846 43.4582 32.668L43.8957 37.1888C43.8957 37.6263 44.3332 37.918 44.7707 37.918H51.9166C52.3541 37.918 52.7916 37.6263 52.7916 37.1888L53.2291 32.668C54.3957 32.2305 55.4166 31.6471 56.4374 30.7721L60.6666 32.668C61.1041 32.8138 61.5416 32.668 61.8332 32.3763L65.4791 26.1055C65.7707 25.668 65.6249 25.2305 65.1874 24.9388L61.1041 22.3138ZM48.1249 27.7096C44.0416 27.7096 40.8332 24.5013 40.8332 20.418C40.8332 16.3346 44.0416 13.1263 48.1249 13.1263C52.2082 13.1263 55.4166 16.3346 55.4166 20.418C55.4166 24.5013 52.2082 27.7096 48.1249 27.7096Z" fill="url(#paint1_linear_202_744)"/>
<defs>
<linearGradient id="paint0_linear_202_744" x1="23.3334" y1="29.0195" x2="23.3334" y2="67.6654" gradientUnits="userSpaceOnUse">
<stop stop-color="#06EAEA"/>
<stop offset="1" stop-color="#00BFE3"/>
</linearGradient>
<linearGradient id="paint1_linear_202_744" x1="48.2707" y1="2.91797" x2="48.2707" y2="37.918" gradientUnits="userSpaceOnUse">
<stop stop-color="#06EAEA"/>
<stop offset="1" stop-color="#00BFE3"/>
</linearGradient>
</defs>
</svg>
