<svg width="31" height="30" viewBox="0 0 31 30" fill="none" xmlns="http://www.w3.org/2000/svg">
<path d="M30.0781 25.8333C30.0781 28.135 28.2083 30 25.9006 30H4.17752C1.87069 30 0 28.135 0 25.8333V4.16667C0 1.865 1.87069 0 4.17752 0H25.9006C28.2083 0 30.0781 1.865 30.0781 4.16667V25.8333Z" fill="#048BFF"/>
<path d="M16.7866 16.1392H19.5855L20.0249 13.3274H16.786V11.7906C16.786 10.6225 17.1719 9.58668 18.2768 9.58668H20.0522V7.13285C19.7403 7.0912 19.0806 7 17.834 7C15.2309 7 13.7048 8.35948 13.7048 11.4567V13.3274H11.0288V16.1392H13.7048V23.8677C14.2347 23.9465 14.7715 24 15.3225 24C15.8206 24 16.3067 23.955 16.7866 23.8908V16.1392Z" fill="white"/>
</svg>
