<svg width="31" height="30" viewBox="0 0 31 30" fill="none" xmlns="http://www.w3.org/2000/svg">
<path d="M30.0781 25.8333C30.0781 28.135 28.2083 30 25.9006 30H4.17752C1.87069 30 0 28.135 0 25.8333V4.16667C0 1.865 1.87069 0 4.17752 0H25.9006C28.2083 0 30.0781 1.865 30.0781 4.16667V25.8333Z" fill="#048BFF"/>
<path d="M19.7277 5H10.4343C7.41397 5 5.01318 7.39455 5.01318 10.4071V19.6763C5.01318 22.6888 7.41397 25.0833 10.4343 25.0833H19.7277C22.748 25.0833 25.1488 22.6888 25.1488 19.6763V10.4071C25.1488 7.39455 22.748 5 19.7277 5Z" stroke="white" stroke-width="1.54487" stroke-miterlimit="10" stroke-linecap="round" stroke-linejoin="round"/>
<path d="M20.502 8.47559C20.7173 8.47559 20.8906 8.64995 20.8906 8.8623C20.8906 9.07465 20.7173 9.24805 20.502 9.24805C20.2866 9.24803 20.1133 9.07464 20.1133 8.8623C20.1133 8.64996 20.2866 8.4756 20.502 8.47559Z" fill="#010101" stroke="white" stroke-width="0.772436"/>
<path d="M15.0808 19.6755C17.6471 19.6755 19.7275 17.6005 19.7275 15.0409C19.7275 12.4812 17.6471 10.4062 15.0808 10.4062C12.5145 10.4062 10.4341 12.4812 10.4341 15.0409C10.4341 17.6005 12.5145 19.6755 15.0808 19.6755Z" stroke="white" stroke-width="1.54487" stroke-miterlimit="10" stroke-linecap="round" stroke-linejoin="round"/>
</svg>
