<svg width="31" height="30" viewBox="0 0 31 30" fill="none" xmlns="http://www.w3.org/2000/svg">
<path d="M30.0781 25.8333C30.0781 28.135 28.2083 30 25.9006 30H4.17752C1.87069 30 0 28.135 0 25.8333V4.16667C0 1.865 1.87069 0 4.17752 0H25.9006C28.2083 0 30.0781 1.865 30.0781 4.16667V25.8333Z" fill="#048BFF"/>
<path d="M7.01807 11.6667H10.3601V23H7.01807V11.6667ZM8.67905 10.3333H8.66033C7.66307 10.3333 7.01807 9.592 7.01807 8.666C7.01807 7.72 7.68313 7 8.69843 7C9.71507 7 10.3414 7.72 10.3601 8.666C10.3601 9.59133 9.71507 10.3333 8.67905 10.3333ZM23.0597 23H19.7177V16.934C19.7177 15.4687 18.8989 14.4687 17.5842 14.4687C16.5809 14.4687 16.0382 15.1433 15.7748 15.7953C15.6786 16.0287 15.7073 16.674 15.7073 17V23H12.3653V11.6667H15.7073V13.4107C16.1892 12.6667 16.9438 11.6667 18.8742 11.6667C21.2657 11.6667 23.0591 13.1667 23.0591 16.516L23.0597 23Z" fill="white"/>
</svg>
