<svg width="31" height="30" viewBox="0 0 31 30" fill="none" xmlns="http://www.w3.org/2000/svg">
<path d="M30.0781 25.8333C30.0781 28.135 28.2083 30 25.9006 30H4.17752C1.87069 30 0 28.135 0 25.8333V4.16667C0 1.865 1.87069 0 4.17752 0H25.9006C28.2083 0 30.0781 1.865 30.0781 4.16667V25.8333Z" fill="#048BFF"/>
<path d="M15.5444 4.63867C18.1878 4.63931 20.6676 5.66583 22.5356 7.53027C24.4035 9.39458 25.4298 11.8692 25.4292 14.5039C25.4272 19.9375 20.9925 24.3621 15.5415 24.3623H15.5376C13.762 24.3617 12.0209 23.8863 10.5044 22.9883V22.9873L10.1196 22.7598L9.89014 22.625L9.63232 22.6924L6.71826 23.4541L7.48975 20.6484L7.56396 20.376L7.41357 20.1377L7.1626 19.7402C6.17361 18.171 5.65133 16.3588 5.65186 14.4961C5.65428 9.23281 9.81651 4.91577 15.0366 4.65137L15.5444 4.63867Z" stroke="white" stroke-width="1.27749"/>
<path fill-rule="evenodd" clip-rule="evenodd" d="M12.3752 9.21699C12.1384 8.69136 11.8889 8.68071 11.6628 8.6714C11.478 8.66341 11.2672 8.66408 11.0564 8.66408C10.8456 8.66408 10.5027 8.74325 10.2125 9.0593C9.92234 9.37534 9.10449 10.1385 9.10449 11.6915C9.10449 13.2444 10.2385 14.7454 10.3966 14.9557C10.5547 15.1659 12.586 18.4548 15.8027 19.7203C18.4758 20.7716 19.0201 20.5627 19.6005 20.5101C20.1809 20.4575 21.473 19.7469 21.7365 19.0097C22 18.2725 22 17.6411 21.9213 17.5093C21.8419 17.3776 21.6311 17.2991 21.3149 17.1407C20.9987 16.9824 19.4424 16.2192 19.1522 16.1141C18.862 16.009 18.6512 15.9564 18.4397 16.2724C18.2289 16.5878 17.6226 17.2991 17.4378 17.5093C17.253 17.7203 17.0682 17.7469 16.752 17.5885C16.4358 17.4302 15.4165 17.0975 14.2071 16.0223C13.2665 15.1859 12.6314 14.1526 12.4466 13.8366C12.2618 13.5212 12.4266 13.3502 12.5854 13.1925C12.7275 13.0508 12.9016 12.8239 13.0603 12.6396C13.2184 12.4553 13.2711 12.3235 13.3765 12.1133C13.4819 11.9024 13.4292 11.7181 13.3499 11.5604C13.2718 11.402 12.6567 9.84109 12.3752 9.21699Z" fill="white"/>
</svg>
